<svg width="36" height="36" viewBox="0 0 36 36" fill="none" xmlns="http://www.w3.org/2000/svg">
<rect width="36" height="36" rx="6" fill="#F1F5F8"/>
<path d="M17.4375 9.25C18.0352 9.25 18.5625 9.60156 18.8789 10.0938C19.1953 10.6211 19.1953 11.2891 18.8789 11.7812C18.5625 12.3086 18.0352 12.625 17.4375 12.625C16.8047 12.625 16.2773 12.3086 15.9609 11.7812C15.6445 11.2891 15.6445 10.6211 15.9609 10.0938C16.2773 9.60156 16.8047 9.25 17.4375 9.25ZM13.6055 14.875C13.1133 14.875 12.6211 15.0859 12.2695 15.4375L11.4609 16.2461C11.0391 16.7031 10.3008 16.7031 9.87891 16.2461C9.42188 15.8242 9.42188 15.0859 9.87891 14.6641L10.6875 13.8555C11.4609 13.082 12.5156 12.625 13.6055 12.625C13.9922 12.625 14.4141 12.6953 14.8008 12.8359L16.5234 13.3633C17.7891 13.75 18.8438 14.6992 19.3359 15.9297L19.582 16.457C19.7578 16.8789 20.1445 17.125 20.6016 17.125H21.375C21.9727 17.125 22.5 17.6523 22.5 18.25C22.5 18.8828 21.9727 19.375 21.375 19.375H20.6016C19.2305 19.375 18.0352 18.5664 17.5078 17.3008L17.332 16.8789L16.2422 19.7617L18.2109 21.0273C18.8438 21.4141 19.1602 22.1875 18.9492 22.9258L17.9297 26.4414C17.7539 27.0391 17.1562 27.3906 16.5586 27.2148C15.9609 27.0391 15.6094 26.4414 15.7852 25.8438L16.6641 22.7148L13.6406 20.8164C12.7617 20.2539 12.375 19.1641 12.6914 18.1797L13.7812 14.9102C13.7109 14.9102 13.6758 14.875 13.6055 14.875ZM11.707 20.1836C11.9531 20.8164 12.4102 21.3789 13.043 21.7656L13.3594 21.9766L12.9727 22.8906C12.6914 23.4883 12.0938 23.875 11.4258 23.875H9C8.36719 23.875 7.875 23.3828 7.875 22.75C7.875 22.1523 8.36719 21.625 9 21.625H11.0742L11.707 20.1836ZM21.375 10.9375C21.375 10.0234 22.1133 9.25 23.0625 9.25H26.4375C27.3516 9.25 28.125 10.0234 28.125 10.9375V25.5625C28.125 26.5117 27.3516 27.25 26.4375 27.25H23.0625C22.1133 27.25 21.375 26.5117 21.375 25.5625V20.5C22.6055 20.5 23.625 19.5156 23.625 18.25C23.625 17.0195 22.6055 16 21.375 16V10.9375Z" fill="#7472F2"/>
</svg>
