<svg width="12" height="11" viewBox="0 0 12 11" fill="none" xmlns="http://www.w3.org/2000/svg">
<path d="M9.78906 4C10.4531 4 11.625 4.56641 11.625 5.25C11.625 5.95312 10.4531 6.5 9.78906 6.5H7.50391L5.55078 9.9375C5.43359 10.1328 5.21875 10.25 5.00391 10.25H3.91016C3.69531 10.25 3.53906 10.0547 3.59766 9.85938L4.55469 6.5H2.5625L1.70312 7.63281C1.64453 7.71094 1.56641 7.75 1.46875 7.75H0.648438C0.492188 7.75 0.375 7.63281 0.375 7.47656C0.375 7.45703 0.375 7.4375 0.375 7.41797L1 5.25L0.375 3.10156C0.375 3.08203 0.375 3.0625 0.375 3.02344C0.375 2.88672 0.492188 2.75 0.648438 2.75H1.46875C1.56641 2.75 1.64453 2.80859 1.70312 2.88672L2.5625 4H4.55469L3.59766 0.660156C3.53906 0.464844 3.69531 0.25 3.91016 0.25H5.00391C5.21875 0.25 5.43359 0.386719 5.55078 0.582031L7.50391 4H9.78906Z" fill="#2BD060"/>
</svg>
